<?xml version="1.0" encoding="UTF-8"?>
<svg id="Layer_1" data-name="Layer 1" xmlns="http://www.w3.org/2000/svg" viewBox="0 0 1710.5 995.85">
  <line x1="1170.5" y1="770.5" x2="1215.5" y2="725.5" style="fill: none; stroke: #000; stroke-miterlimit: 10;"/>
  <line x1="1230.5" y1="740.5" x2="1245.5" y2="740.5" style="fill: none; stroke: #000; stroke-miterlimit: 10;"/>
  <line x1="1185.5" y1="785.5" x2="1230.5" y2="740.5" style="fill: none; stroke: #000; stroke-miterlimit: 10;"/>
  <line x1="1245.5" y1="755.5" x2="1260.5" y2="755.5" style="fill: none; stroke: #000; stroke-miterlimit: 10;"/>
  <line x1="1200.5" y1="800.5" x2="1245.5" y2="755.5" style="fill: none; stroke: #000; stroke-miterlimit: 10;"/>
  <line x1="1230.5" y1="785.5" x2="1275.5" y2="785.5" style="fill: none; stroke: #000; stroke-miterlimit: 10;"/>
  <line x1="1140.5" y1="875.5" x2="1230.5" y2="785.5" style="fill: none; stroke: #000; stroke-miterlimit: 10;"/>
  <line x1="1125.5" y1="875.5" x2="1140.5" y2="875.5" style="fill: none; stroke: #000; stroke-miterlimit: 10;"/>
  <line x1="1065.5" y1="935.5" x2="1125.5" y2="875.5" style="fill: none; stroke: #000; stroke-miterlimit: 10;"/>
  <line x1="1035.5" y1="935.5" x2="1065.5" y2="935.5" style="fill: none; stroke: #000; stroke-miterlimit: 10;"/>
  <line x1="885.5" y1="935.5" x2="1035.5" y2="935.5" style="fill: none; stroke: #000; stroke-miterlimit: 10;"/>
  <line x1="870.5" y1="950.5" x2="885.5" y2="935.5" style="fill: none; stroke: #000; stroke-miterlimit: 10;"/>
  <line x1="825.5" y1="995.5" x2="870.5" y2="950.5" style="fill: none; stroke: #000; stroke-miterlimit: 10;"/>
  <line x1="1020.5" y1="965.5" x2="1050.5" y2="995.5" style="fill: none; stroke: #000; stroke-miterlimit: 10;"/>
  <line x1="915.5" y1="965.5" x2="1020.5" y2="965.5" style="fill: none; stroke: #000; stroke-miterlimit: 10;"/>
  <line x1="885.5" y1="995.5" x2="915.5" y2="965.5" style="fill: none; stroke: #000; stroke-miterlimit: 10;"/>
  <line x1="1020.5" y1="980.5" x2="1035.5" y2="995.5" style="fill: none; stroke: #000; stroke-miterlimit: 10;"/>
  <line x1="915.5" y1="980.5" x2="1020.5" y2="980.5" style="fill: none; stroke: #000; stroke-miterlimit: 10;"/>
  <line x1="900.5" y1="995.5" x2="915.5" y2="980.5" style="fill: none; stroke: #000; stroke-miterlimit: 10;"/>
  <line x1="1035.5" y1="950.5" x2="1080.5" y2="995.5" style="fill: none; stroke: #000; stroke-miterlimit: 10;"/>
  <line x1="900.5" y1="950.5" x2="1035.5" y2="950.5" style="fill: none; stroke: #000; stroke-miterlimit: 10;"/>
  <line x1="855.5" y1="995.5" x2="900.5" y2="950.5" style="fill: none; stroke: #000; stroke-miterlimit: 10;"/>
  <line x1="1590.5" y1="950.5" x2="1635.5" y2="995.5" style="fill: none; stroke: #000; stroke-miterlimit: 10;"/>
  <line x1="1530.5" y1="890.5" x2="1590.5" y2="950.5" style="fill: none; stroke: #000; stroke-miterlimit: 10;"/>
  <line x1="1530.5" y1="680.5" x2="1530.5" y2="890.5" style="fill: none; stroke: #000; stroke-miterlimit: 10;"/>
  <line x1="1575.5" y1="635.5" x2="1530.5" y2="680.5" style="fill: none; stroke: #000; stroke-miterlimit: 10;"/>
  <line x1="1575.5" y1="545.5" x2="1575.5" y2="635.5" style="fill: none; stroke: #000; stroke-miterlimit: 10;"/>
  <line x1="1605.5" y1="545.5" x2="1605.5" y2="650.5" style="fill: none; stroke: #000; stroke-miterlimit: 10;"/>
  <line x1="1545.5" y1="710.5" x2="1605.5" y2="650.5" style="fill: none; stroke: #000; stroke-miterlimit: 10;"/>
  <line x1="1545.5" y1="890.5" x2="1545.5" y2="710.5" style="fill: none; stroke: #000; stroke-miterlimit: 10;"/>
  <line x1="1650.5" y1="995.5" x2="1545.5" y2="890.5" style="fill: none; stroke: #000; stroke-miterlimit: 10;"/>
  <line x1="1620.5" y1="245.5" x2="1605.5" y2="245.5" style="fill: none; stroke: #000; stroke-miterlimit: 10;"/>
  <line x1="1620.5" y1="215.5" x2="1605.5" y2="215.5" style="fill: none; stroke: #000; stroke-miterlimit: 10;"/>
  <line x1="1620.5" y1="185.5" x2="1605.5" y2="185.5" style="fill: none; stroke: #000; stroke-miterlimit: 10;"/>
  <line x1="1605.5" y1="155.5" x2="1620.5" y2="155.5" style="fill: none; stroke: #000; stroke-miterlimit: 10;"/>
  <line x1="1620.5" y1="20.5" x2="1620.5" y2="5.5" style="fill: none; stroke: #000; stroke-miterlimit: 10;"/>
  <line x1="1605.5" y1="35.5" x2="1620.5" y2="20.5" style="fill: none; stroke: #000; stroke-miterlimit: 10;"/>
  <line x1="1605.5" y1="80.5" x2="1605.5" y2="35.5" style="fill: none; stroke: #000; stroke-miterlimit: 10;"/>
  <line x1="1560.5" y1="125.5" x2="1605.5" y2="80.5" style="fill: none; stroke: #000; stroke-miterlimit: 10;"/>
  <line x1="1560.5" y1="140.5" x2="1560.5" y2="125.5" style="fill: none; stroke: #000; stroke-miterlimit: 10;"/>
  <line x1="1590.5" y1="65.5" x2="1590.5" y2="5.5" style="fill: none; stroke: #000; stroke-miterlimit: 10;"/>
  <line x1="1545.5" y1="110.5" x2="1590.5" y2="65.5" style="fill: none; stroke: #000; stroke-miterlimit: 10;"/>
  <line x1="1545.5" y1="140.5" x2="1545.5" y2="110.5" style="fill: none; stroke: #000; stroke-miterlimit: 10;"/>
  <line x1="1560.5" y1="35.5" x2="1560.5" y2="5.5" style="fill: none; stroke: #000; stroke-miterlimit: 10;"/>
  <line x1="1530.5" y1="65.5" x2="1560.5" y2="35.5" style="fill: none; stroke: #000; stroke-miterlimit: 10;"/>
  <line x1="1500.5" y1="95.5" x2="1530.5" y2="65.5" style="fill: none; stroke: #000; stroke-miterlimit: 10;"/>
  <line x1="1500.5" y1="110.5" x2="1500.5" y2="95.5" style="fill: none; stroke: #000; stroke-miterlimit: 10;"/>
  <line x1="1530.5" y1="140.5" x2="1500.5" y2="110.5" style="fill: none; stroke: #000; stroke-miterlimit: 10;"/>
  <line x1="1515.5" y1="50.5" x2="1530.5" y2="35.5" style="fill: none; stroke: #000; stroke-miterlimit: 10;"/>
  <line x1="1485.5" y1="80.5" x2="1515.5" y2="50.5" style="fill: none; stroke: #000; stroke-miterlimit: 10;"/>
  <line x1="1485.5" y1="110.5" x2="1485.5" y2="80.5" style="fill: none; stroke: #000; stroke-miterlimit: 10;"/>
  <line x1="1515.5" y1="140.5" x2="1485.5" y2="110.5" style="fill: none; stroke: #000; stroke-miterlimit: 10;"/>
  <line x1="1485.5" y1="50.5" x2="1500.5" y2="35.5" style="fill: none; stroke: #000; stroke-miterlimit: 10;"/>
  <line x1="1470.5" y1="65.5" x2="1485.5" y2="50.5" style="fill: none; stroke: #000; stroke-miterlimit: 10;"/>
  <line x1="1470.5" y1="110.5" x2="1470.5" y2="65.5" style="fill: none; stroke: #000; stroke-miterlimit: 10;"/>
  <line x1="1500.5" y1="140.5" x2="1470.5" y2="110.5" style="fill: none; stroke: #000; stroke-miterlimit: 10;"/>
  <line x1="1500.5" y1="185.5" x2="1500.5" y2="140.5" style="fill: none; stroke: #000; stroke-miterlimit: 10;"/>
  <line x1="1515.5" y1="185.5" x2="1515.5" y2="140.5" style="fill: none; stroke: #000; stroke-miterlimit: 10;"/>
  <line x1="1530.5" y1="185.5" x2="1530.5" y2="140.5" style="fill: none; stroke: #000; stroke-miterlimit: 10;"/>
  <line x1="1545.5" y1="185.5" x2="1545.5" y2="140.5" style="fill: none; stroke: #000; stroke-miterlimit: 10;"/>
  <line x1="1560.5" y1="185.5" x2="1560.5" y2="140.5" style="fill: none; stroke: #000; stroke-miterlimit: 10;"/>
  <line x1="1470.5" y1="215.5" x2="1500.5" y2="185.5" style="fill: none; stroke: #000; stroke-miterlimit: 10;"/>
  <line x1="1485.5" y1="215.5" x2="1515.5" y2="185.5" style="fill: none; stroke: #000; stroke-miterlimit: 10;"/>
  <line x1="1500.5" y1="215.5" x2="1530.5" y2="185.5" style="fill: none; stroke: #000; stroke-miterlimit: 10;"/>
  <line x1="1515.5" y1="215.5" x2="1545.5" y2="185.5" style="fill: none; stroke: #000; stroke-miterlimit: 10;"/>
  <line x1="1530.5" y1="215.5" x2="1560.5" y2="185.5" style="fill: none; stroke: #000; stroke-miterlimit: 10;"/>
  <line x1="1590.5" y1="200.5" x2="1605.5" y2="185.5" style="fill: none; stroke: #000; stroke-miterlimit: 10;"/>
  <line x1="1590.5" y1="230.5" x2="1605.5" y2="215.5" style="fill: none; stroke: #000; stroke-miterlimit: 10;"/>
  <line x1="1545.5" y1="215.5" x2="1605.5" y2="155.5" style="fill: none; stroke: #000; stroke-miterlimit: 10;"/>
  <line x1="1560.5" y1="230.5" x2="1590.5" y2="200.5" style="fill: none; stroke: #000; stroke-miterlimit: 10;"/>
  <line x1="1575.5" y1="245.5" x2="1590.5" y2="230.5" style="fill: none; stroke: #000; stroke-miterlimit: 10;"/>
  <line x1="1590.5" y1="260.5" x2="1605.5" y2="245.5" style="fill: none; stroke: #000; stroke-miterlimit: 10;"/>
  <line x1="1380.5" y1="800.5" x2="1380.5" y2="770.5" style="fill: none; stroke: #000; stroke-miterlimit: 10;"/>
  <line x1="1395.5" y1="800.5" x2="1395.5" y2="770.5" style="fill: none; stroke: #000; stroke-miterlimit: 10;"/>
  <line x1="1410.5" y1="800.5" x2="1410.5" y2="770.5" style="fill: none; stroke: #000; stroke-miterlimit: 10;"/>
  <line x1="1425.5" y1="800.5" x2="1425.5" y2="770.5" style="fill: none; stroke: #000; stroke-miterlimit: 10;"/>
  <line x1="1440.5" y1="800.5" x2="1440.5" y2="770.5" style="fill: none; stroke: #000; stroke-miterlimit: 10;"/>
  <line x1="1350.5" y1="890.5" x2="1440.5" y2="800.5" style="fill: none; stroke: #000; stroke-miterlimit: 10;"/>
  <line x1="1350.5" y1="875.5" x2="1425.5" y2="800.5" style="fill: none; stroke: #000; stroke-miterlimit: 10;"/>
  <line x1="1350.5" y1="860.5" x2="1410.5" y2="800.5" style="fill: none; stroke: #000; stroke-miterlimit: 10;"/>
  <line x1="1350.5" y1="845.5" x2="1395.5" y2="800.5" style="fill: none; stroke: #000; stroke-miterlimit: 10;"/>
  <line x1="1350.5" y1="830.5" x2="1380.5" y2="800.5" style="fill: none; stroke: #000; stroke-miterlimit: 10;"/>
  <line x1="1479.42" y1="960.92" x2="1514" y2="995.5" style="fill: none; stroke: #000; stroke-miterlimit: 10;"/>
  <line x1="1427.55" y1="960.92" x2="1479.42" y2="960.92" style="fill: none; stroke: #000; stroke-miterlimit: 10;"/>
  <line x1="1375.68" y1="960.92" x2="1427.55" y2="960.92" style="fill: none; stroke: #000; stroke-miterlimit: 10;"/>
  <line x1="1323.82" y1="909.05" x2="1375.68" y2="960.92" style="fill: none; stroke: #000; stroke-miterlimit: 10;"/>
  <line x1="1237.37" y1="909.05" x2="1323.82" y2="909.05" style="fill: none; stroke: #000; stroke-miterlimit: 10;"/>
  <line x1="1185.5" y1="960.92" x2="1237.37" y2="909.05" style="fill: none; stroke: #000; stroke-miterlimit: 10;"/>
  <line x1="1185.5" y1="995.5" x2="1185.5" y2="960.92" style="fill: none; stroke: #000; stroke-miterlimit: 10;"/>
  <line x1="1455.5" y1="965.5" x2="1485.5" y2="995.5" style="fill: none; stroke: #000; stroke-miterlimit: 10;"/>
  <line x1="1410.5" y1="965.5" x2="1455.5" y2="965.5" style="fill: none; stroke: #000; stroke-miterlimit: 10;"/>
  <line x1="1365.5" y1="965.5" x2="1410.5" y2="965.5" style="fill: none; stroke: #000; stroke-miterlimit: 10;"/>
  <line x1="1140.5" y1="800.5" x2="1170.5" y2="770.5" style="fill: none; stroke: #000; stroke-miterlimit: 10;"/>
  <line x1="1140.5" y1="830.5" x2="1185.5" y2="785.5" style="fill: none; stroke: #000; stroke-miterlimit: 10;"/>
  <line x1="1155.5" y1="845.5" x2="1200.5" y2="800.5" style="fill: none; stroke: #000; stroke-miterlimit: 10;"/>
  <line x1="1125.5" y1="845.5" x2="1155.5" y2="845.5" style="fill: none; stroke: #000; stroke-miterlimit: 10;"/>
  <line x1="1605.5" y1="980.5" x2="1620.5" y2="995.5" style="fill: none; stroke: #000; stroke-miterlimit: 10;"/>
  <line x1="1575.5" y1="980.5" x2="1590.5" y2="995.5" style="fill: none; stroke: #000; stroke-miterlimit: 10;"/>
  <line x1="1560.5" y1="980.5" x2="1575.5" y2="980.5" style="fill: none; stroke: #000; stroke-miterlimit: 10;"/>
  <line x1="1575.5" y1="965.5" x2="1605.5" y2="995.5" style="fill: none; stroke: #000; stroke-miterlimit: 10;"/>
  <line x1="1560.5" y1="965.5" x2="1575.5" y2="965.5" style="fill: none; stroke: #000; stroke-miterlimit: 10;"/>
  <line x1="1575.5" y1="950.5" x2="1605.5" y2="980.5" style="fill: none; stroke: #000; stroke-miterlimit: 10;"/>
  <line x1="1560.5" y1="950.5" x2="1575.5" y2="950.5" style="fill: none; stroke: #000; stroke-miterlimit: 10;"/>
  <line x1="1050.5" y1="920.5" x2="1125.5" y2="845.5" style="fill: none; stroke: #000; stroke-miterlimit: 10;"/>
  <line x1="1110.5" y1="830.5" x2="1140.5" y2="830.5" style="fill: none; stroke: #000; stroke-miterlimit: 10;"/>
  <line x1="1035.5" y1="905.5" x2="1110.5" y2="830.5" style="fill: none; stroke: #000; stroke-miterlimit: 10;"/>
  <line x1="1065.5" y1="800.5" x2="1140.5" y2="800.5" style="fill: none; stroke: #000; stroke-miterlimit: 10;"/>
  <line x1="975.5" y1="905.5" x2="1035.5" y2="905.5" style="fill: none; stroke: #000; stroke-miterlimit: 10;"/>
  <line x1="975.5" y1="920.5" x2="1050.5" y2="920.5" style="fill: none; stroke: #000; stroke-miterlimit: 10;"/>
  <line x1="810.5" y1="980.5" x2="870.5" y2="920.5" style="fill: none; stroke: #000; stroke-miterlimit: 10;"/>
  <line x1="810.5" y1="965.5" x2="870.5" y2="905.5" style="fill: none; stroke: #000; stroke-miterlimit: 10;"/>
  <line x1="735.5" y1="965.5" x2="810.5" y2="965.5" style="fill: none; stroke: #000; stroke-miterlimit: 10;"/>
  <line x1="645.5" y1="980.5" x2="810.5" y2="980.5" style="fill: none; stroke: #000; stroke-miterlimit: 10;"/>
  <line x1="630.5" y1="995.5" x2="645.5" y2="980.5" style="fill: none; stroke: #000; stroke-miterlimit: 10;"/>
  <line x1="675.5" y1="965.5" x2="735.5" y2="965.5" style="fill: none; stroke: #000; stroke-miterlimit: 10;"/>
  <line x1="615.5" y1="965.5" x2="675.5" y2="965.5" style="fill: none; stroke: #000; stroke-miterlimit: 10;"/>
  <line x1="585.5" y1="995.5" x2="615.5" y2="965.5" style="fill: none; stroke: #000; stroke-miterlimit: 10;"/>
  <line x1="975.5" y1="890.5" x2="1065.5" y2="800.5" style="fill: none; stroke: #000; stroke-miterlimit: 10;"/>
  <line x1="870.5" y1="920.5" x2="975.5" y2="920.5" style="fill: none; stroke: #000; stroke-miterlimit: 10;"/>
  <line x1="870.5" y1="905.5" x2="975.5" y2="905.5" style="fill: none; stroke: #000; stroke-miterlimit: 10;"/>
  <line x1="870.5" y1="890.5" x2="975.5" y2="890.5" style="fill: none; stroke: #000; stroke-miterlimit: 10;"/>
  <line x1="810.5" y1="950.5" x2="870.5" y2="890.5" style="fill: none; stroke: #000; stroke-miterlimit: 10;"/>
  <line x1="735.5" y1="950.5" x2="810.5" y2="950.5" style="fill: none; stroke: #000; stroke-miterlimit: 10;"/>
  <line x1="705.5" y1="920.5" x2="735.5" y2="950.5" style="fill: none; stroke: #000; stroke-miterlimit: 10;"/>
  <line x1="645.5" y1="920.5" x2="705.5" y2="920.5" style="fill: none; stroke: #000; stroke-miterlimit: 10;"/>
  <line x1="615.5" y1="950.5" x2="645.5" y2="920.5" style="fill: none; stroke: #000; stroke-miterlimit: 10;"/>
  <line x1="585.5" y1="950.5" x2="615.5" y2="950.5" style="fill: none; stroke: #000; stroke-miterlimit: 10;"/>
  <line x1="555.5" y1="980.5" x2="585.5" y2="950.5" style="fill: none; stroke: #000; stroke-miterlimit: 10;"/>
  <line x1="480.5" y1="980.5" x2="555.5" y2="980.5" style="fill: none; stroke: #000; stroke-miterlimit: 10;"/>
  <line x1="390.5" y1="980.5" x2="480.5" y2="980.5" style="fill: none; stroke: #000; stroke-miterlimit: 10;"/>
  <line x1="375.5" y1="965.5" x2="390.5" y2="980.5" style="fill: none; stroke: #000; stroke-miterlimit: 10;"/>
  <line x1="1320.5" y1="920.5" x2="1365.5" y2="965.5" style="fill: none; stroke: #000; stroke-miterlimit: 10;"/>
  <line x1="1245.5" y1="920.5" x2="1320.5" y2="920.5" style="fill: none; stroke: #000; stroke-miterlimit: 10;"/>
  <line x1="1200.5" y1="965.5" x2="1245.5" y2="920.5" style="fill: none; stroke: #000; stroke-miterlimit: 10;"/>
  <line x1="1200.5" y1="995.5" x2="1200.5" y2="965.5" style="fill: none; stroke: #000; stroke-miterlimit: 10;"/>
  <line x1="1200.5" y1="830.5" x2="1350.5" y2="830.5" style="fill: none; stroke: #000; stroke-miterlimit: 10;"/>
  <line x1="1095.5" y1="935.5" x2="1200.5" y2="830.5" style="fill: none; stroke: #000; stroke-miterlimit: 10;"/>
  <line x1="1095.5" y1="995.5" x2="1095.5" y2="935.5" style="fill: none; stroke: #000; stroke-miterlimit: 10;"/>
  <line x1="1110.5" y1="935.5" x2="1110.5" y2="995.5" style="fill: none; stroke: #000; stroke-miterlimit: 10;"/>
  <line x1="1125.5" y1="920.5" x2="1110.5" y2="935.5" style="fill: none; stroke: #000; stroke-miterlimit: 10;"/>
  <line x1="1200.5" y1="845.5" x2="1125.5" y2="920.5" style="fill: none; stroke: #000; stroke-miterlimit: 10;"/>
  <line x1="1350.5" y1="845.5" x2="1200.5" y2="845.5" style="fill: none; stroke: #000; stroke-miterlimit: 10;"/>
  <line x1="1200.5" y1="860.5" x2="1350.5" y2="860.5" style="fill: none; stroke: #000; stroke-miterlimit: 10;"/>
  <line x1="1125.5" y1="935.5" x2="1200.5" y2="860.5" style="fill: none; stroke: #000; stroke-miterlimit: 10;"/>
  <line x1="1125.5" y1="995.5" x2="1125.5" y2="935.5" style="fill: none; stroke: #000; stroke-miterlimit: 10;"/>
  <line x1="1155.5" y1="935.5" x2="1200.5" y2="890.5" style="fill: none; stroke: #000; stroke-miterlimit: 10;"/>
  <line x1="1155.5" y1="995.5" x2="1155.5" y2="935.5" style="fill: none; stroke: #000; stroke-miterlimit: 10;"/>
  <line x1="1200.5" y1="890.5" x2="1350.5" y2="890.5" style="fill: none; stroke: #000; stroke-miterlimit: 10;"/>
  <line x1="1140.5" y1="935.5" x2="1200.5" y2="875.5" style="fill: none; stroke: #000; stroke-miterlimit: 10;"/>
  <line x1="1140.5" y1="995.5" x2="1140.5" y2="935.5" style="fill: none; stroke: #000; stroke-miterlimit: 10;"/>
  <line x1="1200.5" y1="875.5" x2="1350.5" y2="875.5" style="fill: none; stroke: #000; stroke-miterlimit: 10;"/>
  <line x1="330.5" y1="920.5" x2="375.5" y2="965.5" style="fill: none; stroke: #000; stroke-miterlimit: 10;"/>
  <line x1="255.5" y1="920.5" x2="330.5" y2="920.5" style="fill: none; stroke: #000; stroke-miterlimit: 10;"/>
  <line x1="210.5" y1="965.5" x2="255.5" y2="920.5" style="fill: none; stroke: #000; stroke-miterlimit: 10;"/>
  <line x1="210.5" y1="995.5" x2="210.5" y2="965.5" style="fill: none; stroke: #000; stroke-miterlimit: 10;"/>
  <line x1="1260.5" y1="65.5" x2="1230.5" y2="35.5" style="fill: none; stroke: #000; stroke-miterlimit: 10;"/>
  <line x1="1260.5" y1="125.5" x2="1260.5" y2="65.5" style="fill: none; stroke: #000; stroke-miterlimit: 10;"/>
  <line x1="1350.5" y1="215.5" x2="1260.5" y2="125.5" style="fill: none; stroke: #000; stroke-miterlimit: 10;"/>
  <line x1="1350.5" y1="365.5" x2="1350.5" y2="215.5" style="fill: none; stroke: #000; stroke-miterlimit: 10;"/>
  <line x1="1320.5" y1="395.5" x2="1350.5" y2="365.5" style="fill: none; stroke: #000; stroke-miterlimit: 10;"/>
  <line x1="1095.5" y1="395.5" x2="1320.5" y2="395.5" style="fill: none; stroke: #000; stroke-miterlimit: 10;"/>
  <line x1="975.5" y1="515.5" x2="1095.5" y2="395.5" style="fill: none; stroke: #000; stroke-miterlimit: 10;"/>
  <line x1="975.5" y1="680.5" x2="975.5" y2="515.5" style="fill: none; stroke: #000; stroke-miterlimit: 10;"/>
  <line x1="930.5" y1="725.5" x2="975.5" y2="680.5" style="fill: none; stroke: #000; stroke-miterlimit: 10;"/>
  <line x1="795.5" y1="725.5" x2="930.5" y2="725.5" style="fill: none; stroke: #000; stroke-miterlimit: 10;"/>
  <line x1="720.5" y1="800.5" x2="795.5" y2="725.5" style="fill: none; stroke: #000; stroke-miterlimit: 10;"/>
  <line x1="630.5" y1="800.5" x2="720.5" y2="800.5" style="fill: none; stroke: #000; stroke-miterlimit: 10;"/>
  <line x1="540.5" y1="890.5" x2="630.5" y2="800.5" style="fill: none; stroke: #000; stroke-miterlimit: 10;"/>
  <line x1="420.5" y1="890.5" x2="540.5" y2="890.5" style="fill: none; stroke: #000; stroke-miterlimit: 10;"/>
  <line x1="360.5" y1="830.5" x2="420.5" y2="890.5" style="fill: none; stroke: #000; stroke-miterlimit: 10;"/>
  <line x1="210.5" y1="830.5" x2="360.5" y2="830.5" style="fill: none; stroke: #000; stroke-miterlimit: 10;"/>
  <line x1="105.5" y1="935.5" x2="210.5" y2="830.5" style="fill: none; stroke: #000; stroke-miterlimit: 10;"/>
  <line x1="105.5" y1="995.5" x2="105.5" y2="935.5" style="fill: none; stroke: #000; stroke-miterlimit: 10;"/>
  <line x1="120.5" y1="860.5" x2="90.5" y2="890.5" style="fill: none; stroke: #000; stroke-miterlimit: 10;"/>
  <line x1="150.5" y1="860.5" x2="120.5" y2="860.5" style="fill: none; stroke: #000; stroke-miterlimit: 10;"/>
  <line x1="180.5" y1="830.5" x2="150.5" y2="860.5" style="fill: none; stroke: #000; stroke-miterlimit: 10;"/>
  <line x1="180.5" y1="800.5" x2="180.5" y2="830.5" style="fill: none; stroke: #000; stroke-miterlimit: 10;"/>
  <line x1="150.5" y1="770.5" x2="180.5" y2="800.5" style="fill: none; stroke: #000; stroke-miterlimit: 10;"/>
  <line x1="105.5" y1="770.5" x2="150.5" y2="770.5" style="fill: none; stroke: #000; stroke-miterlimit: 10;"/>
  <line x1="60.5" y1="815.5" x2="105.5" y2="770.5" style="fill: none; stroke: #000; stroke-miterlimit: 10;"/>
  <line x1="60.5" y1="830.5" x2="60.5" y2="815.5" style="fill: none; stroke: #000; stroke-miterlimit: 10;"/>
  <line x1="60.5" y1="995.5" x2="60.5" y2="830.5" style="fill: none; stroke: #000; stroke-miterlimit: 10;"/>
  <line x1="1275.5" y1="5.5" x2="1290.5" y2="20.5" style="fill: none; stroke: #000; stroke-miterlimit: 10;"/>
  <line x1="1650.5" y1="965.5" x2="1710.5" y2="965.5" style="fill: none; stroke: #000; stroke-miterlimit: 10;"/>
  <line x1="1635.5" y1="950.5" x2="1650.5" y2="965.5" style="fill: none; stroke: #000; stroke-miterlimit: 10;"/>
  <line x1="1560.5" y1="875.5" x2="1635.5" y2="950.5" style="fill: none; stroke: #000; stroke-miterlimit: 10;"/>
  <line x1="1560.5" y1="725.5" x2="1560.5" y2="875.5" style="fill: none; stroke: #000; stroke-miterlimit: 10;"/>
  <line x1="1620.5" y1="665.5" x2="1560.5" y2="725.5" style="fill: none; stroke: #000; stroke-miterlimit: 10;"/>
  <line x1="1620.5" y1="545.5" x2="1620.5" y2="665.5" style="fill: none; stroke: #000; stroke-miterlimit: 10;"/>
  <line x1="1635.5" y1="665.5" x2="1635.5" y2="545.5" style="fill: none; stroke: #000; stroke-miterlimit: 10;"/>
  <line x1="1575.5" y1="725.5" x2="1635.5" y2="665.5" style="fill: none; stroke: #000; stroke-miterlimit: 10;"/>
  <line x1="1575.5" y1="875.5" x2="1575.5" y2="725.5" style="fill: none; stroke: #000; stroke-miterlimit: 10;"/>
  <line x1="1650.5" y1="950.5" x2="1575.5" y2="875.5" style="fill: none; stroke: #000; stroke-miterlimit: 10;"/>
  <line x1="1710.5" y1="950.5" x2="1650.5" y2="950.5" style="fill: none; stroke: #000; stroke-miterlimit: 10;"/>
  <line x1="1650.5" y1="920.5" x2="1605.5" y2="875.5" style="fill: none; stroke: #000; stroke-miterlimit: 10;"/>
  <line x1="1710.5" y1="920.5" x2="1650.5" y2="920.5" style="fill: none; stroke: #000; stroke-miterlimit: 10;"/>
  <line x1="1605.5" y1="875.5" x2="1605.5" y2="725.5" style="fill: none; stroke: #000; stroke-miterlimit: 10;"/>
  <line x1="1605.5" y1="725.5" x2="1665.5" y2="665.5" style="fill: none; stroke: #000; stroke-miterlimit: 10;"/>
  <line x1="1665.5" y1="665.5" x2="1665.5" y2="545.5" style="fill: none; stroke: #000; stroke-miterlimit: 10;"/>
  <line x1="1650.5" y1="935.5" x2="1590.5" y2="875.5" style="fill: none; stroke: #000; stroke-miterlimit: 10;"/>
  <line x1="1710.5" y1="935.5" x2="1650.5" y2="935.5" style="fill: none; stroke: #000; stroke-miterlimit: 10;"/>
  <line x1="1590.5" y1="875.5" x2="1590.5" y2="725.5" style="fill: none; stroke: #000; stroke-miterlimit: 10;"/>
  <line x1="1590.5" y1="725.5" x2="1650.5" y2="665.5" style="fill: none; stroke: #000; stroke-miterlimit: 10;"/>
  <line x1="1650.5" y1="665.5" x2="1650.5" y2="545.5" style="fill: none; stroke: #000; stroke-miterlimit: 10;"/>
  <line x1="120.5" y1="935.5" x2="120.5" y2="995.5" style="fill: none; stroke: #000; stroke-miterlimit: 10;"/>
  <line x1="135.5" y1="920.5" x2="120.5" y2="935.5" style="fill: none; stroke: #000; stroke-miterlimit: 10;"/>
  <line x1="210.5" y1="845.5" x2="135.5" y2="920.5" style="fill: none; stroke: #000; stroke-miterlimit: 10;"/>
  <line x1="360.5" y1="845.5" x2="210.5" y2="845.5" style="fill: none; stroke: #000; stroke-miterlimit: 10;"/>
  <line x1="420.5" y1="905.5" x2="360.5" y2="845.5" style="fill: none; stroke: #000; stroke-miterlimit: 10;"/>
  <line x1="540.5" y1="905.5" x2="420.5" y2="905.5" style="fill: none; stroke: #000; stroke-miterlimit: 10;"/>
  <line x1="600.5" y1="845.5" x2="540.5" y2="905.5" style="fill: none; stroke: #000; stroke-miterlimit: 10;"/>
  <line x1="1350.5" y1="680.5" x2="1350.5" y2="560.5" style="fill: none; stroke: #000; stroke-miterlimit: 10;"/>
  <line x1="1335.5" y1="560.5" x2="1335.5" y2="680.5" style="fill: none; stroke: #000; stroke-miterlimit: 10;"/>
  <line x1="1290.5" y1="560.5" x2="1290.5" y2="680.5" style="fill: none; stroke: #000; stroke-miterlimit: 10;"/>
  <line x1="1305.5" y1="560.5" x2="1305.5" y2="680.5" style="fill: none; stroke: #000; stroke-miterlimit: 10;"/>
  <line x1="1320.5" y1="560.5" x2="1320.5" y2="680.5" style="fill: none; stroke: #000; stroke-miterlimit: 10;"/>
  <line x1="1410.5" y1="665.5" x2="1410.5" y2="605.5" style="fill: none; stroke: #000; stroke-miterlimit: 10;"/>
  <line x1="1590.5" y1="425.5" x2="1410.5" y2="605.5" style="fill: none; stroke: #000; stroke-miterlimit: 10;"/>
  <line x1="1575.5" y1="410.5" x2="1395.5" y2="590.5" style="fill: none; stroke: #000; stroke-miterlimit: 10;"/>
  <line x1="1365.5" y1="560.5" x2="1545.5" y2="380.5" style="fill: none; stroke: #000; stroke-miterlimit: 10;"/>
  <line x1="1380.5" y1="575.5" x2="1560.5" y2="395.5" style="fill: none; stroke: #000; stroke-miterlimit: 10;"/>
  <line x1="1530.5" y1="380.5" x2="1350.5" y2="560.5" style="fill: none; stroke: #000; stroke-miterlimit: 10;"/>
  <line x1="1515.5" y1="380.5" x2="1335.5" y2="560.5" style="fill: none; stroke: #000; stroke-miterlimit: 10;"/>
  <line x1="1320.5" y1="560.5" x2="1500.5" y2="380.5" style="fill: none; stroke: #000; stroke-miterlimit: 10;"/>
  <line x1="1290.5" y1="560.5" x2="1470.5" y2="380.5" style="fill: none; stroke: #000; stroke-miterlimit: 10;"/>
  <line x1="1305.5" y1="560.5" x2="1485.5" y2="380.5" style="fill: none; stroke: #000; stroke-miterlimit: 10;"/>
  <line x1="1500.5" y1="755.5" x2="1410.5" y2="665.5" style="fill: none; stroke: #000; stroke-miterlimit: 10;"/>
  <line x1="1500.5" y1="890.5" x2="1500.5" y2="755.5" style="fill: none; stroke: #000; stroke-miterlimit: 10;"/>
  <line x1="1560.5" y1="950.5" x2="1500.5" y2="890.5" style="fill: none; stroke: #000; stroke-miterlimit: 10;"/>
  <line x1="1485.5" y1="890.5" x2="1560.5" y2="965.5" style="fill: none; stroke: #000; stroke-miterlimit: 10;"/>
  <line x1="1485.5" y1="755.5" x2="1485.5" y2="890.5" style="fill: none; stroke: #000; stroke-miterlimit: 10;"/>
  <line x1="1395.5" y1="665.5" x2="1485.5" y2="755.5" style="fill: none; stroke: #000; stroke-miterlimit: 10;"/>
  <line x1="1395.5" y1="590.5" x2="1395.5" y2="665.5" style="fill: none; stroke: #000; stroke-miterlimit: 10;"/>
  <line x1="1365.5" y1="560.5" x2="1365.5" y2="665.5" style="fill: none; stroke: #000; stroke-miterlimit: 10;"/>
  <line x1="1350.5" y1="680.5" x2="1440.5" y2="770.5" style="fill: none; stroke: #000; stroke-miterlimit: 10;"/>
  <line x1="1290.5" y1="680.5" x2="1380.5" y2="770.5" style="fill: none; stroke: #000; stroke-miterlimit: 10;"/>
  <line x1="1305.5" y1="680.5" x2="1395.5" y2="770.5" style="fill: none; stroke: #000; stroke-miterlimit: 10;"/>
  <line x1="1320.5" y1="680.5" x2="1410.5" y2="770.5" style="fill: none; stroke: #000; stroke-miterlimit: 10;"/>
  <line x1="1335.5" y1="680.5" x2="1425.5" y2="770.5" style="fill: none; stroke: #000; stroke-miterlimit: 10;"/>
  <line x1="1365.5" y1="665.5" x2="1455.5" y2="755.5" style="fill: none; stroke: #000; stroke-miterlimit: 10;"/>
  <line x1="1455.5" y1="755.5" x2="1455.5" y2="890.5" style="fill: none; stroke: #000; stroke-miterlimit: 10;"/>
  <line x1="1470.5" y1="755.5" x2="1470.5" y2="890.5" style="fill: none; stroke: #000; stroke-miterlimit: 10;"/>
  <line x1="1380.5" y1="575.5" x2="1380.5" y2="665.5" style="fill: none; stroke: #000; stroke-miterlimit: 10;"/>
  <line x1="1455.5" y1="890.5" x2="1560.5" y2="995.5" style="fill: none; stroke: #000; stroke-miterlimit: 10;"/>
  <line x1="1470.5" y1="890.5" x2="1560.5" y2="980.5" style="fill: none; stroke: #000; stroke-miterlimit: 10;"/>
  <line x1="1380.5" y1="665.5" x2="1470.5" y2="755.5" style="fill: none; stroke: #000; stroke-miterlimit: 10;"/>
  <line x1="720.5" y1="845.5" x2="600.5" y2="845.5" style="fill: none; stroke: #000; stroke-miterlimit: 10;"/>
  <line x1="810.5" y1="755.5" x2="720.5" y2="845.5" style="fill: none; stroke: #000; stroke-miterlimit: 10;"/>
  <line x1="945.5" y1="755.5" x2="810.5" y2="755.5" style="fill: none; stroke: #000; stroke-miterlimit: 10;"/>
  <line x1="1005.5" y1="695.5" x2="945.5" y2="755.5" style="fill: none; stroke: #000; stroke-miterlimit: 10;"/>
  <line x1="1005.5" y1="515.5" x2="1005.5" y2="695.5" style="fill: none; stroke: #000; stroke-miterlimit: 10;"/>
  <line x1="1020.5" y1="500.5" x2="1005.5" y2="515.5" style="fill: none; stroke: #000; stroke-miterlimit: 10;"/>
  <line x1="1110.5" y1="410.5" x2="1020.5" y2="500.5" style="fill: none; stroke: #000; stroke-miterlimit: 10;"/>
  <line x1="1365.5" y1="410.5" x2="1110.5" y2="410.5" style="fill: none; stroke: #000; stroke-miterlimit: 10;"/>
  <line x1="1410.5" y1="350.5" x2="1410.5" y2="365.5" style="fill: none; stroke: #000; stroke-miterlimit: 10;"/>
  <line x1="1410.5" y1="365.5" x2="1365.5" y2="410.5" style="fill: none; stroke: #000; stroke-miterlimit: 10;"/>
  <line x1="1365.5" y1="140.5" x2="1320.5" y2="95.5" style="fill: none; stroke: #000; stroke-miterlimit: 10;"/>
  <line x1="1410.5" y1="200.5" x2="1290.5" y2="80.5" style="fill: none; stroke: #000; stroke-miterlimit: 10;"/>
  <line x1="1290.5" y1="20.5" x2="1290.5" y2="80.5" style="fill: none; stroke: #000; stroke-miterlimit: 10;"/>
  <line x1="1320.5" y1="5.5" x2="1320.5" y2="95.5" style="fill: none; stroke: #000; stroke-miterlimit: 10;"/>
  <line x1="1425.5" y1="200.5" x2="1365.5" y2="140.5" style="fill: none; stroke: #000; stroke-miterlimit: 10;"/>
  <line x1="1470.5" y1="380.5" x2="1470.5" y2="215.5" style="fill: none; stroke: #000; stroke-miterlimit: 10;"/>
  <line x1="1485.5" y1="380.5" x2="1485.5" y2="215.5" style="fill: none; stroke: #000; stroke-miterlimit: 10;"/>
  <line x1="1590.5" y1="425.5" x2="1590.5" y2="260.5" style="fill: none; stroke: #000; stroke-miterlimit: 10;"/>
  <line x1="1575.5" y1="410.5" x2="1575.5" y2="245.5" style="fill: none; stroke: #000; stroke-miterlimit: 10;"/>
  <line x1="1560.5" y1="395.5" x2="1560.5" y2="230.5" style="fill: none; stroke: #000; stroke-miterlimit: 10;"/>
  <line x1="1545.5" y1="380.5" x2="1545.5" y2="215.5" style="fill: none; stroke: #000; stroke-miterlimit: 10;"/>
  <line x1="1530.5" y1="380.5" x2="1530.5" y2="215.5" style="fill: none; stroke: #000; stroke-miterlimit: 10;"/>
  <line x1="1515.5" y1="380.5" x2="1515.5" y2="215.5" style="fill: none; stroke: #000; stroke-miterlimit: 10;"/>
  <line x1="1500.5" y1="380.5" x2="1500.5" y2="215.5" style="fill: none; stroke: #000; stroke-miterlimit: 10;"/>
  <line x1="1410.5" y1="350.5" x2="1410.5" y2="200.5" style="fill: none; stroke: #000; stroke-miterlimit: 10;"/>
  <line x1="1425.5" y1="365.5" x2="1425.5" y2="200.5" style="fill: none; stroke: #000; stroke-miterlimit: 10;"/>
  <line x1="1365.5" y1="425.5" x2="1425.5" y2="365.5" style="fill: none; stroke: #000; stroke-miterlimit: 10;"/>
  <line x1="1110.5" y1="425.5" x2="1365.5" y2="425.5" style="fill: none; stroke: #000; stroke-miterlimit: 10;"/>
  <line x1="1020.5" y1="515.5" x2="1110.5" y2="425.5" style="fill: none; stroke: #000; stroke-miterlimit: 10;"/>
  <line x1="1020.5" y1="695.5" x2="1020.5" y2="515.5" style="fill: none; stroke: #000; stroke-miterlimit: 10;"/>
  <line x1="945.5" y1="770.5" x2="1020.5" y2="695.5" style="fill: none; stroke: #000; stroke-miterlimit: 10;"/>
  <line x1="810.5" y1="770.5" x2="945.5" y2="770.5" style="fill: none; stroke: #000; stroke-miterlimit: 10;"/>
  <line x1="720.5" y1="860.5" x2="810.5" y2="770.5" style="fill: none; stroke: #000; stroke-miterlimit: 10;"/>
  <line x1="600.5" y1="860.5" x2="720.5" y2="860.5" style="fill: none; stroke: #000; stroke-miterlimit: 10;"/>
  <line x1="540.5" y1="920.5" x2="600.5" y2="860.5" style="fill: none; stroke: #000; stroke-miterlimit: 10;"/>
  <line x1="420.5" y1="920.5" x2="540.5" y2="920.5" style="fill: none; stroke: #000; stroke-miterlimit: 10;"/>
  <line x1="360.5" y1="860.5" x2="420.5" y2="920.5" style="fill: none; stroke: #000; stroke-miterlimit: 10;"/>
  <line x1="210.5" y1="860.5" x2="360.5" y2="860.5" style="fill: none; stroke: #000; stroke-miterlimit: 10;"/>
  <line x1="135.5" y1="935.5" x2="210.5" y2="860.5" style="fill: none; stroke: #000; stroke-miterlimit: 10;"/>
  <line x1="135.5" y1="995.5" x2="135.5" y2="935.5" style="fill: none; stroke: #000; stroke-miterlimit: 10;"/>
  <line x1="1350.5" y1="110.5" x2="1380.5" y2="140.5" style="fill: none; stroke: #000; stroke-miterlimit: 10;"/>
  <line x1="1530.5" y1="5.5" x2="1530.5" y2="35.5" style="fill: none; stroke: #000; stroke-miterlimit: 10;"/>
  <line x1="1500.5" y1="5.5" x2="1500.5" y2="35.5" style="fill: none; stroke: #000; stroke-miterlimit: 10;"/>
  <line x1="1350.5" y1="5.5" x2="1350.5" y2="110.5" style="fill: none; stroke: #000; stroke-miterlimit: 10;"/>
  <line x1="1380.5" y1="5.5" x2="1380.5" y2="125.5" style="fill: none; stroke: #000; stroke-miterlimit: 10;"/>
  <line x1="1455.5" y1="200.5" x2="1380.5" y2="125.5" style="fill: none; stroke: #000; stroke-miterlimit: 10;"/>
  <line x1="1440.5" y1="200.5" x2="1380.5" y2="140.5" style="fill: none; stroke: #000; stroke-miterlimit: 10;"/>
  <line x1=".5" y1="995.5" x2=".5" y2="725.5" style="fill: none; stroke: #000; stroke-miterlimit: 10;"/>
  <line x1=".5" y1="725.5" x2="120.5" y2="605.5" style="fill: none; stroke: #000; stroke-miterlimit: 10;"/>
  <line x1="120.5" y1="605.5" x2="390.5" y2="605.5" style="fill: none; stroke: #000; stroke-miterlimit: 10;"/>
  <line x1="480.5" y1="515.5" x2="390.5" y2="605.5" style="fill: none; stroke: #000; stroke-miterlimit: 10;"/>
  <line x1="480.5" y1="515.5" x2="750.5" y2="515.5" style="fill: none; stroke: #000; stroke-miterlimit: 10;"/>
  <line x1="750.5" y1="515.5" x2="870.5" y2="395.5" style="fill: none; stroke: #000; stroke-miterlimit: 10;"/>
  <line x1="870.5" y1="395.5" x2="990.5" y2="395.5" style="fill: none; stroke: #000; stroke-miterlimit: 10;"/>
  <line x1="990.5" y1="395.5" x2="1080.5" y2="305.5" style="fill: none; stroke: #000; stroke-miterlimit: 10;"/>
  <line x1="1080.5" y1="305.5" x2="1080.5" y2="95.5" style="fill: none; stroke: #000; stroke-miterlimit: 10;"/>
  <line x1="165.5" y1="935.5" x2="210.5" y2="890.5" style="fill: none; stroke: #000; stroke-miterlimit: 10;"/>
  <line x1="165.5" y1="995.5" x2="165.5" y2="935.5" style="fill: none; stroke: #000; stroke-miterlimit: 10;"/>
  <line x1="210.5" y1="890.5" x2="360.5" y2="890.5" style="fill: none; stroke: #000; stroke-miterlimit: 10;"/>
  <line x1="360.5" y1="890.5" x2="420.5" y2="950.5" style="fill: none; stroke: #000; stroke-miterlimit: 10;"/>
  <line x1="420.5" y1="950.5" x2="540.5" y2="950.5" style="fill: none; stroke: #000; stroke-miterlimit: 10;"/>
  <line x1="540.5" y1="950.5" x2="600.5" y2="890.5" style="fill: none; stroke: #000; stroke-miterlimit: 10;"/>
  <line x1="600.5" y1="890.5" x2="720.5" y2="890.5" style="fill: none; stroke: #000; stroke-miterlimit: 10;"/>
  <line x1="720.5" y1="890.5" x2="810.5" y2="800.5" style="fill: none; stroke: #000; stroke-miterlimit: 10;"/>
  <line x1="150.5" y1="935.5" x2="210.5" y2="875.5" style="fill: none; stroke: #000; stroke-miterlimit: 10;"/>
  <line x1="105.5" y1="755.5" x2="390.5" y2="755.5" style="fill: none; stroke: #000; stroke-miterlimit: 10;"/>
  <line x1="480.5" y1="665.5" x2="390.5" y2="755.5" style="fill: none; stroke: #000; stroke-miterlimit: 10;"/>
  <line x1="480.5" y1="665.5" x2="750.5" y2="665.5" style="fill: none; stroke: #000; stroke-miterlimit: 10;"/>
  <line x1="810.5" y1="800.5" x2="945.5" y2="800.5" style="fill: none; stroke: #000; stroke-miterlimit: 10;"/>
  <line x1="810.5" y1="785.5" x2="945.5" y2="785.5" style="fill: none; stroke: #000; stroke-miterlimit: 10;"/>
  <line x1="45.5" y1="995.5" x2="45.5" y2="815.5" style="fill: none; stroke: #000; stroke-miterlimit: 10;"/>
  <line x1="1050.5" y1="695.5" x2="1050.5" y2="515.5" style="fill: none; stroke: #000; stroke-miterlimit: 10;"/>
  <line x1="1035.5" y1="695.5" x2="1035.5" y2="515.5" style="fill: none; stroke: #000; stroke-miterlimit: 10;"/>
  <line x1="45.5" y1="815.5" x2="105.5" y2="755.5" style="fill: none; stroke: #000; stroke-miterlimit: 10;"/>
  <line x1="150.5" y1="995.5" x2="150.5" y2="935.5" style="fill: none; stroke: #000; stroke-miterlimit: 10;"/>
  <line x1="210.5" y1="875.5" x2="360.5" y2="875.5" style="fill: none; stroke: #000; stroke-miterlimit: 10;"/>
  <line x1="360.5" y1="875.5" x2="420.5" y2="935.5" style="fill: none; stroke: #000; stroke-miterlimit: 10;"/>
  <line x1="420.5" y1="935.5" x2="540.5" y2="935.5" style="fill: none; stroke: #000; stroke-miterlimit: 10;"/>
  <line x1="540.5" y1="935.5" x2="600.5" y2="875.5" style="fill: none; stroke: #000; stroke-miterlimit: 10;"/>
  <line x1="600.5" y1="875.5" x2="720.5" y2="875.5" style="fill: none; stroke: #000; stroke-miterlimit: 10;"/>
  <line x1="945.5" y1="800.5" x2="1050.5" y2="695.5" style="fill: none; stroke: #000; stroke-miterlimit: 10;"/>
  <line x1="945.5" y1="785.5" x2="1035.5" y2="695.5" style="fill: none; stroke: #000; stroke-miterlimit: 10;"/>
  <line x1="720.5" y1="875.5" x2="810.5" y2="785.5" style="fill: none; stroke: #000; stroke-miterlimit: 10;"/>
  <line x1="15.5" y1="995.5" x2="15.5" y2="755.5" style="fill: none; stroke: #000; stroke-miterlimit: 10;"/>
  <line x1="15.5" y1="755.5" x2="15.5" y2="740.5" style="fill: none; stroke: #000; stroke-miterlimit: 10;"/>
  <line x1="15.5" y1="740.5" x2="15.5" y2="725.5" style="fill: none; stroke: #000; stroke-miterlimit: 10;"/>
  <line x1="15.5" y1="725.5" x2="120.5" y2="620.5" style="fill: none; stroke: #000; stroke-miterlimit: 10;"/>
  <line x1="120.5" y1="620.5" x2="390.5" y2="620.5" style="fill: none; stroke: #000; stroke-miterlimit: 10;"/>
  <line x1="390.5" y1="620.5" x2="480.5" y2="530.5" style="fill: none; stroke: #000; stroke-miterlimit: 10;"/>
  <line x1="480.5" y1="530.5" x2="750.5" y2="530.5" style="fill: none; stroke: #000; stroke-miterlimit: 10;"/>
  <line x1="750.5" y1="530.5" x2="870.5" y2="410.5" style="fill: none; stroke: #000; stroke-miterlimit: 10;"/>
  <line x1="990.5" y1="410.5" x2="870.5" y2="410.5" style="fill: none; stroke: #000; stroke-miterlimit: 10;"/>
  <line x1="990.5" y1="410.5" x2="1095.5" y2="305.5" style="fill: none; stroke: #000; stroke-miterlimit: 10;"/>
  <line x1="1455.5" y1="365.5" x2="1455.5" y2="200.5" style="fill: none; stroke: #000; stroke-miterlimit: 10;"/>
  <line x1="1440.5" y1="365.5" x2="1440.5" y2="200.5" style="fill: none; stroke: #000; stroke-miterlimit: 10;"/>
  <line x1="1095.5" y1="305.5" x2="1095.5" y2="140.5" style="fill: none; stroke: #000; stroke-miterlimit: 10;"/>
  <line x1="1095.5" y1="140.5" x2="1125.5" y2="110.5" style="fill: none; stroke: #000; stroke-miterlimit: 10;"/>
  <line x1="1125.5" y1="110.5" x2="1125.5" y2="95.5" style="fill: none; stroke: #000; stroke-miterlimit: 10;"/>
  <line x1="30.5" y1="995.5" x2="30.5" y2="815.5" style="fill: none; stroke: #000; stroke-miterlimit: 10;"/>
  <line x1="30.5" y1="815.5" x2="105.5" y2="740.5" style="fill: none; stroke: #000; stroke-miterlimit: 10;"/>
  <line x1="105.5" y1="740.5" x2="375.5" y2="740.5" style="fill: none; stroke: #000; stroke-miterlimit: 10;"/>
  <line x1="375.5" y1="740.5" x2="390.5" y2="740.5" style="fill: none; stroke: #000; stroke-miterlimit: 10;"/>
  <line x1="1365.5" y1="455.5" x2="1455.5" y2="365.5" style="fill: none; stroke: #000; stroke-miterlimit: 10;"/>
  <line x1="1365.5" y1="440.5" x2="1440.5" y2="365.5" style="fill: none; stroke: #000; stroke-miterlimit: 10;"/>
  <line x1="1050.5" y1="515.5" x2="1110.5" y2="455.5" style="fill: none; stroke: #000; stroke-miterlimit: 10;"/>
  <line x1="1035.5" y1="515.5" x2="1110.5" y2="440.5" style="fill: none; stroke: #000; stroke-miterlimit: 10;"/>
  <line x1="390.5" y1="740.5" x2="465.5" y2="665.5" style="fill: none; stroke: #000; stroke-miterlimit: 10;"/>
  <line x1="465.5" y1="665.5" x2="480.5" y2="650.5" style="fill: none; stroke: #000; stroke-miterlimit: 10;"/>
  <line x1="1110.5" y1="455.5" x2="1365.5" y2="455.5" style="fill: none; stroke: #000; stroke-miterlimit: 10;"/>
  <line x1="1110.5" y1="440.5" x2="1365.5" y2="440.5" style="fill: none; stroke: #000; stroke-miterlimit: 10;"/>
  <line x1="480.5" y1="650.5" x2="735.5" y2="650.5" style="fill: none; stroke: #000; stroke-miterlimit: 10;"/>
  <line x1="735.5" y1="650.5" x2="750.5" y2="635.5" style="fill: none; stroke: #000; stroke-miterlimit: 10;"/>
  <circle cx="750.5" cy="665.5" r="5" style="stroke: #000; stroke-miterlimit: 10;"/>
  <circle cx="90.5" cy="890.5" r="5" style="stroke: #000; stroke-miterlimit: 10;"/>
  <circle cx="1230.5" cy="35.5" r="5" style="stroke: #000; stroke-miterlimit: 10;"/>
  <circle cx="1275.5" cy="5.5" r="5" style="stroke: #000; stroke-miterlimit: 10;"/>
  <circle cx="1620.5" cy="245.5" r="5" style="stroke: #000; stroke-miterlimit: 10;"/>
  <circle cx="1620.5" cy="215.5" r="5" style="stroke: #000; stroke-miterlimit: 10;"/>
  <circle cx="1620.5" cy="155.5" r="5" style="stroke: #000; stroke-miterlimit: 10;"/>
  <circle cx="1620.5" cy="185.5" r="5" style="stroke: #000; stroke-miterlimit: 10;"/>
  <circle cx="1245.5" cy="740.5" r="5" style="stroke: #000; stroke-miterlimit: 10;"/>
  <circle cx="1260.5" cy="755.5" r="5" style="stroke: #000; stroke-miterlimit: 10;"/>
  <circle cx="1275.5" cy="785.5" r="5" style="stroke: #000; stroke-miterlimit: 10;"/>
  <circle cx="1215.5" cy="725.5" r="5" style="stroke: #000; stroke-miterlimit: 10;"/>
  <circle cx="1575.5" cy="545.5" r="5" style="stroke: #000; stroke-miterlimit: 10;"/>
  <circle cx="1635.5" cy="545.5" r="5" style="stroke: #000; stroke-miterlimit: 10;"/>
  <circle cx="1665.5" cy="545.5" r="5" style="stroke: #000; stroke-miterlimit: 10;"/>
  <circle cx="1605.5" cy="545.5" r="5" style="stroke: #000; stroke-miterlimit: 10;"/>
  <circle cx="1500.5" cy="5.5" r="5" style="stroke: #000; stroke-miterlimit: 10;"/>
  <circle cx="1530.5" cy="5.5" r="5" style="stroke: #000; stroke-miterlimit: 10;"/>
  <circle cx="1590.5" cy="5.5" r="5" style="stroke: #000; stroke-miterlimit: 10;"/>
  <circle cx="1620.5" cy="5.5" r="5" style="stroke: #000; stroke-miterlimit: 10;"/>
  <circle cx="1560.5" cy="5.5" r="5" style="stroke: #000; stroke-miterlimit: 10;"/>
  <circle cx="1320.5" cy="5.5" r="5" style="stroke: #000; stroke-miterlimit: 10;"/>
  <circle cx="1350.5" cy="5.5" r="5" style="stroke: #000; stroke-miterlimit: 10;"/>
  <circle cx="1380.5" cy="5.5" r="5" style="stroke: #000; stroke-miterlimit: 10;"/>
  <circle cx="1125.5" cy="95.5" r="5" style="stroke: #000; stroke-miterlimit: 10;"/>
  <circle cx="1080.5" cy="95.5" r="5" style="stroke: #000; stroke-miterlimit: 10;"/>
  <circle cx="750.5" cy="635.5" r="5" style="stroke: #000; stroke-miterlimit: 10;"/>
</svg>